<svg xmlns="http://www.w3.org/2000/svg" width="16" height="16" viewBox="0 0 16 16">
  <path id="FontAwsome_times-circle_" data-name="FontAwsome (times-circle)" d="M16,8a8,8,0,1,0,8,8A8,8,0,0,0,16,8Zm3.923,10.1a.387.387,0,0,1,0,.548l-1.277,1.274a.387.387,0,0,1-.548,0L16,17.806l-2.1,2.116a.387.387,0,0,1-.548,0l-1.274-1.277a.387.387,0,0,1,0-.548L14.194,16l-2.116-2.1a.387.387,0,0,1,0-.548l1.277-1.277a.387.387,0,0,1,.548,0L16,14.194l2.1-2.116a.387.387,0,0,1,.548,0l1.277,1.277a.387.387,0,0,1,0,.548L17.806,16Z" transform="translate(-8 -8)" fill="#b1b1b1"/>
</svg>
