<svg xmlns="http://www.w3.org/2000/svg" width="38" height="39" viewBox="0 0 38 39">
  <g id="Group_70" data-name="Group 70" transform="translate(-34 -26)">
    <g id="Path_21" data-name="Path 21" transform="translate(57 26)" fill="#fff">
      <path d="M 7.5 14.75 C 3.502340078353882 14.75 0.25 11.49765968322754 0.25 7.5 C 0.25 3.502340078353882 3.502340078353882 0.25 7.5 0.25 C 11.49765968322754 0.25 14.75 3.502340078353882 14.75 7.5 C 14.75 11.49765968322754 11.49765968322754 14.75 7.5 14.75 Z" stroke="none"/>
      <path d="M 7.5 0.5 C 3.640190124511719 0.5 0.5 3.640190124511719 0.5 7.5 C 0.5 11.35980987548828 3.640190124511719 14.5 7.5 14.5 C 11.35980987548828 14.5 14.5 11.35980987548828 14.5 7.5 C 14.5 3.640190124511719 11.35980987548828 0.5 7.5 0.5 M 7.5 0 C 11.64213943481445 0 15 3.35785961151123 15 7.5 C 15 11.64213943481445 11.64213943481445 15 7.5 15 C 3.35785961151123 15 0 11.64213943481445 0 7.5 C 0 3.35785961151123 3.35785961151123 0 7.5 0 Z" stroke="none" fill="#707070"/>
    </g>
    <g id="Path_18" data-name="Path 18" transform="translate(34 50)" fill="#fff">
      <path d="M 7.5 14.75 C 3.502340078353882 14.75 0.25 11.49765968322754 0.25 7.5 C 0.25 3.502340078353882 3.502340078353882 0.25 7.5 0.25 C 11.49765968322754 0.25 14.75 3.502340078353882 14.75 7.5 C 14.75 11.49765968322754 11.49765968322754 14.75 7.5 14.75 Z" stroke="none"/>
      <path d="M 7.5 0.5 C 3.640190124511719 0.5 0.5 3.640190124511719 0.5 7.5 C 0.5 11.35980987548828 3.640190124511719 14.5 7.5 14.5 C 11.35980987548828 14.5 14.5 11.35980987548828 14.5 7.5 C 14.5 3.640190124511719 11.35980987548828 0.5 7.5 0.5 M 7.5 0 C 11.64213943481445 0 15 3.35785961151123 15 7.5 C 15 11.64213943481445 11.64213943481445 15 7.5 15 C 3.35785961151123 15 0 11.64213943481445 0 7.5 C 0 3.35785961151123 3.35785961151123 0 7.5 0 Z" stroke="none" fill="#707070"/>
    </g>
    <g id="Path_20" data-name="Path 20" transform="translate(57 50)" fill="#fff">
      <path d="M 7.5 14.75 C 3.502340078353882 14.75 0.25 11.49765968322754 0.25 7.5 C 0.25 3.502340078353882 3.502340078353882 0.25 7.5 0.25 C 11.49765968322754 0.25 14.75 3.502340078353882 14.75 7.5 C 14.75 11.49765968322754 11.49765968322754 14.75 7.5 14.75 Z" stroke="none"/>
      <path d="M 7.5 0.5 C 3.640190124511719 0.5 0.5 3.640190124511719 0.5 7.5 C 0.5 11.35980987548828 3.640190124511719 14.5 7.5 14.5 C 11.35980987548828 14.5 14.5 11.35980987548828 14.5 7.5 C 14.5 3.640190124511719 11.35980987548828 0.5 7.5 0.5 M 7.5 0 C 11.64213943481445 0 15 3.35785961151123 15 7.5 C 15 11.64213943481445 11.64213943481445 15 7.5 15 C 3.35785961151123 15 0 11.64213943481445 0 7.5 C 0 3.35785961151123 3.35785961151123 0 7.5 0 Z" stroke="none" fill="#707070"/>
    </g>
    <path id="Path_19" data-name="Path 19" d="M3.5,0A3.5,3.5,0,1,1,0,3.5,3.5,3.5,0,0,1,3.5,0Z" transform="translate(61 54)" fill="#707070"/>
    <g id="Path_22" data-name="Path 22" transform="translate(34 26)" fill="#fff">
      <path d="M 7.5 14.75 C 3.502340078353882 14.75 0.25 11.49765968322754 0.25 7.5 C 0.25 3.502340078353882 3.502340078353882 0.25 7.5 0.25 C 11.49765968322754 0.25 14.75 3.502340078353882 14.75 7.5 C 14.75 11.49765968322754 11.49765968322754 14.75 7.5 14.75 Z" stroke="none"/>
      <path d="M 7.5 0.5 C 3.640190124511719 0.5 0.5 3.640190124511719 0.5 7.5 C 0.5 11.35980987548828 3.640190124511719 14.5 7.5 14.5 C 11.35980987548828 14.5 14.5 11.35980987548828 14.5 7.5 C 14.5 3.640190124511719 11.35980987548828 0.5 7.5 0.5 M 7.5 0 C 11.64213943481445 0 15 3.35785961151123 15 7.5 C 15 11.64213943481445 11.64213943481445 15 7.5 15 C 3.35785961151123 15 0 11.64213943481445 0 7.5 C 0 3.35785961151123 3.35785961151123 0 7.5 0 Z" stroke="none" fill="#707070"/>
    </g>
    <path id="Path_23" data-name="Path 23" d="M3.5,0A3.5,3.5,0,1,1,0,3.5,3.5,3.5,0,0,1,3.5,0Z" transform="translate(38 30)" fill="#707070"/>
  </g>
</svg>
